<svg width="32" height="32" viewBox="0 0 32 32" fill="none" xmlns="http://www.w3.org/2000/svg">
<path fill-rule="evenodd" clip-rule="evenodd" d="M11.0902 19.0469C10.3705 18.3272 9.41875 17.9326 8.41473 17.9326C7.41071 17.9326 6.45893 18.333 5.73929 19.0527C5.01964 19.7723 4.625 20.7241 4.625 21.7281C4.625 22.7321 5.01964 23.6839 5.73929 24.3978C6.45893 25.1174 7.41071 25.5121 8.41473 25.5121C9.41875 25.5121 10.3705 25.1174 11.0902 24.3978C11.8098 23.6781 12.2045 22.7263 12.2045 21.7223C12.2045 20.7183 11.8098 19.7665 11.0902 19.0469ZM3 21.7223C3 18.7451 5.4375 16.3076 8.41473 16.3076C11.3978 16.3076 13.8353 18.7451 13.8295 21.7281C13.8295 24.7054 11.392 27.1429 8.41473 27.1429C5.4375 27.1429 3 24.7054 3 21.7223ZM21.5598 6.70268C21.5598 7.73571 20.7357 8.55982 19.7027 8.55982C18.6754 8.55982 17.8455 7.72991 17.8455 6.70268C17.8455 5.66964 18.6812 4.85714 19.7143 4.85714C20.7473 4.85714 21.5598 5.66964 21.5598 6.70268ZM26.2607 19.0469C25.5411 18.3272 24.5893 17.9326 23.5853 17.9326C22.5754 17.9326 21.6237 18.333 20.9098 19.0527C20.1902 19.7723 19.7955 20.7241 19.7955 21.7281C19.7955 22.7321 20.1902 23.6839 20.9098 24.4036C21.6295 25.1232 22.5813 25.5179 23.5853 25.5179C24.5893 25.5179 25.5411 25.1232 26.2607 24.3978C26.9804 23.6781 27.375 22.7263 27.375 21.7223C27.375 20.7183 26.9804 19.7665 26.2607 19.0469ZM18.1705 21.7223C18.1705 18.7451 20.608 16.3076 23.5853 16.3076C26.5625 16.3076 29 18.7451 29 21.7223C29 24.6996 26.5625 27.1371 23.5853 27.1371C20.608 27.1371 18.1705 24.6996 18.1705 21.7223ZM19.7142 12.2857H22.4999C23.0107 12.2857 23.4285 12.7036 23.4285 13.2143C23.4285 13.725 23.0107 14.1429 22.4999 14.1429H19.1687C18.7393 14.1429 18.3681 13.5045 17.8211 12.5638C17.5771 12.1441 17.2981 11.6643 16.9633 11.154L14.1254 14.1429C14.4814 14.4213 14.9226 14.678 15.3488 14.9259C16.1663 15.4013 16.9285 15.8447 16.9285 16.3482V21.5714C16.9285 22.0822 16.5107 22.5 15.9999 22.5C15.4892 22.5 15.0714 22.0822 15.0714 21.5714V17.7469C15.0714 17.2115 14.6108 16.9696 13.416 16.3423C12.9143 16.0789 12.2831 15.7475 11.5022 15.2978C11.4815 15.2855 11.4593 15.2726 11.436 15.2591C11.074 15.0487 10.4285 14.6737 10.4285 13.725C10.4285 13.2375 10.6433 12.75 10.9683 12.425L15.1294 8.41475C15.4544 8.08975 15.9419 7.87501 16.4294 7.87501C17.0794 7.87501 17.6772 8.25805 18.0022 8.79778L19.7142 12.2857Z" fill="currentColor"/>
</svg>
