<?xml version="1.0" standalone="no"?>
<!DOCTYPE svg PUBLIC "-//W3C//DTD SVG 20010904//EN"
 "http://www.w3.org/TR/2001/REC-SVG-20010904/DTD/svg10.dtd">
<svg version="1.0" xmlns="http://www.w3.org/2000/svg"
 width="142.000000pt" height="100.000000pt" viewBox="0 0 142.000000 100.000000"
 preserveAspectRatio="xMidYMid meet">

<g transform="translate(0.000000,100.000000) scale(0.100000,-0.100000)"
fill="#000000" stroke="none">
<path d="M760 875 c0 -11 17 -15 72 -17 l72 -3 15 -47 c13 -44 13 -51 -5 -90
-38 -86 -145 -165 -237 -175 l-42 -5 -52 81 -52 81 54 35 c30 19 55 39 55 45
0 6 -44 10 -115 10 l-115 0 0 -35 c0 -31 3 -35 40 -46 43 -13 48 -20 27 -37
-8 -7 -26 -8 -52 -2 -61 14 -165 12 -222 -5 -58 -17 -138 -83 -168 -139 -20
-36 -12 -66 9 -32 59 99 136 152 237 163 65 6 169 -13 169 -31 0 -27 -27 -39
-61 -27 -117 41 -257 -30 -304 -153 -21 -54 -17 -145 9 -193 35 -68 113 -124
190 -136 124 -19 260 79 274 198 l5 45 73 0 c83 0 81 3 68 -93 -6 -40 -10 -46
-33 -49 -50 -6 -26 -23 37 -26 38 -2 62 1 62 8 0 5 -9 10 -21 10 -20 0 -21 4
-17 80 l3 80 120 120 c66 66 123 120 127 120 4 0 11 -12 14 -26 5 -19 0 -32
-19 -52 -40 -42 -67 -110 -67 -172 0 -134 109 -242 245 -243 143 0 245 101
245 244 0 81 -23 133 -83 185 -72 63 -164 81 -247 48 -46 -19 -48 -18 -56 22
-5 28 -2 32 35 49 35 15 49 17 86 8 48 -11 69 -1 36 16 -28 16 -96 13 -138 -4
-19 -8 -37 -15 -38 -15 -5 0 -35 93 -35 107 0 8 5 11 10 8 6 -3 10 -17 10 -30
0 -14 8 -29 19 -35 29 -15 117 -12 134 4 15 15 31 102 21 117 -3 5 -45 9 -95
9 -82 0 -89 -1 -89 -20 0 -27 -19 -25 -29 3 -18 47 -38 57 -112 57 -54 0 -69
-3 -69 -15z m366 -77 c-3 -13 -6 -31 -6 -40 0 -15 -9 -18 -55 -18 -30 0 -55 4
-55 9 0 5 -3 23 -6 40 l-6 31 67 0 c65 0 67 -1 61 -22z m-546 -32 c0 -2 -16
-14 -35 -26 -30 -18 -39 -20 -75 -10 -39 10 -47 19 -33 33 7 7 143 10 143 3z
m390 -111 c0 -13 -44 -64 -120 -140 -65 -65 -121 -117 -123 -115 -2 3 -19 27
-37 54 -33 49 -31 65 10 66 57 1 189 97 225 165 19 34 20 35 32 12 7 -12 12
-31 13 -42z m-276 -252 c5 -10 -9 -13 -61 -13 l-69 0 -12 46 c-8 29 -28 62
-56 92 l-45 48 31 53 31 53 86 -134 c48 -73 90 -139 95 -145z m-287 164 c3 -4
-17 -45 -46 -93 -28 -47 -51 -92 -51 -100 0 -11 22 -14 115 -14 113 0 115 0
115 -22 -1 -34 -33 -99 -66 -132 -139 -139 -376 -43 -376 153 0 113 70 201
173 219 44 8 123 1 136 -11z m876 -23 c49 -34 97 -120 97 -173 0 -122 -101
-230 -215 -231 -129 0 -227 93 -227 219 -1 62 17 113 52 150 l23 24 23 -64
c13 -35 35 -74 49 -86 40 -35 100 -45 80 -14 -3 6 -14 11 -24 11 -28 0 -63 46
-87 111 -21 59 -21 60 -2 70 63 34 169 26 231 -17z m-810 -21 c26 -28 73 -121
64 -129 -2 -3 -47 -3 -100 -2 l-95 3 46 78 c26 42 49 77 53 77 3 0 17 -12 32
-27z"/>
<path d="M146 460 c-9 -22 -16 -58 -16 -81 0 -44 23 -109 39 -109 14 0 14 4
-6 60 -16 46 -16 52 0 103 20 62 20 67 8 67 -5 0 -16 -18 -25 -40z"/>
<path d="M1250 525 c0 -2 14 -26 30 -52 24 -38 30 -58 30 -105 0 -58 13 -77
24 -35 14 53 -3 122 -40 167 -23 26 -44 39 -44 25z" class="animate-spin"/>
</g>
</svg>
