<svg width="18" height="23" viewBox="0 0 18 23" fill="none" xmlns="http://www.w3.org/2000/svg">
<path d="M17.1998 8.44439C17.1998 3.91891 13.5253 0.244385 8.9998 0.244385C4.47433 0.244385 0.799805 3.91891 0.799805 8.44439C0.799805 12.1576 3.39131 15.484 6.9498 16.4123L7.64603 18.2689C5.71207 18.385 2.46301 18.8491 2.46301 20.4736C2.46301 22.6784 8.34226 22.7557 9.03848 22.7557C9.73471 22.7557 15.614 22.6784 15.614 20.4736C15.614 18.8104 12.3262 18.385 10.3923 18.2689L11.0498 16.451C14.6083 15.5227 17.1998 12.1963 17.1998 8.44439ZM11.6687 8.44439C11.6687 9.9142 10.4696 11.1133 8.9998 11.1133C7.52999 11.1133 6.33094 9.9142 6.33094 8.44439C6.33094 6.97458 7.52999 5.77552 8.9998 5.77552C10.4696 5.77552 11.6687 6.97458 11.6687 8.44439ZM14.2215 20.4736C13.8347 20.8604 11.9394 21.4406 8.9998 21.4406C6.09886 21.4406 4.20358 20.8604 3.77811 20.4736C4.12622 20.1255 5.71207 19.6227 8.11018 19.5453L8.53565 20.667C8.61301 20.8604 8.76773 20.9765 8.9998 20.9765C9.1932 20.9765 9.3866 20.8604 9.46395 20.667L9.85075 19.5453C12.2875 19.6227 13.8347 20.1255 14.2215 20.4736Z" fill="white"/>
</svg>
